<?xml version="1.0" standalone="no"?>
<!DOCTYPE svg PUBLIC "-//W3C//DTD SVG 20010904//EN"
 "http://www.w3.org/TR/2001/REC-SVG-20010904/DTD/svg10.dtd">
<svg version="1.0" xmlns="http://www.w3.org/2000/svg"
 width="3628.000000pt" height="3628.000000pt" viewBox="0 0 3628.000000 3628.000000"
 preserveAspectRatio="xMidYMid meet">
<metadata>
Created by potrace 1.11, written by Peter Selinger 2001-2013
</metadata>
<g transform="translate(0.000000,3628.000000) scale(0.100000,-0.100000)"
fill="#000000" stroke="none">
<path d="M12209 31469 c-7 -4 -10 -2695 -10 -7340 l0 -7334 38 -33 c21 -19 52
-46 68 -60 17 -15 50 -43 75 -63 25 -20 56 -47 70 -58 28 -25 26 -23 160 -136
52 -44 106 -90 120 -102 14 -12 120 -101 235 -198 233 -197 397 -337 405 -345
3 -4 15 -13 28 -22 12 -8 39 -30 60 -49 20 -19 75 -66 122 -105 129 -108 948
-800 1005 -849 28 -24 158 -134 290 -245 132 -111 254 -214 270 -229 17 -14
68 -57 115 -96 47 -38 87 -72 90 -75 6 -7 130 -112 194 -165 27 -22 54 -45 60
-50 19 -18 415 -353 545 -460 13 -11 28 -25 35 -30 6 -6 99 -84 206 -175 107
-90 213 -180 236 -199 22 -20 62 -55 90 -77 27 -23 64 -55 83 -72 l34 -30
3629 0 3628 0 0 72 c3 607 -1 3840 -4 3843 -2 3 -1636 5 -3630 5 l-3626 -1 0
7340 c0 6983 -1 7339 -17 7340 -139 4 -4598 2 -4604 -2z"/>
<path d="M12203 9807 c-4 -7 -7 -3749 -4 -3895 l1 -22 5947 2 5947 3 0 1953
c1 1075 -1 1957 -4 1961 -7 10 -11881 8 -11887 -2z"/>
</g>
</svg>
