<svg baseProfile="tiny" xmlns="http://www.w3.org/2000/svg" viewBox="0 0 31.3 37"><path fill="#47BAA8" d="M15.2 15.8c.2.4.4.9.6 1.3.2-.5.4-.9.6-1.4.2-.4.4-.9.6-1.3l5.9-11.6c.1-.2.2-.4.3-.5.1-.1.2-.2.4-.2s.3-.1.5-.1h4.7v23H24V11.8c0-.6 0-1.3.1-2.1L18 21.6c-.2.4-.4.6-.8.8-.3.2-.7.3-1.1.3h-.7c-.4 0-.8-.1-1.1-.3s-.6-.5-.8-.8L7.4 9.7c0 .4.1.7.1 1.1V25H2.8V2h4.7c.2 0 .3 0 .5.1.1.1.3.1.4.2.1.1.2.3.3.5l5.9 11.7c.2.4.4.9.6 1.3z"/><path fill="#2C9E8D" d="M24 15.1L28.7 2l-4.6 7.7s-.1.6-.1 1.2v4.2zm-16.5.4L2.8 2.1l4.6 7.7s.1.6.1 1.2v4.5z"/><path fill="#47BAA8" d="M12 32.6h8v3h-8z"/></svg>