<svg id="Layer_1" xmlns="http://www.w3.org/2000/svg" viewBox="0 0 33 33"><path d="M19.9 17.4c.3.7.4 1.4.4 2.2 0 1-.2 1.9-.7 2.7-.5.8-1.1 1.5-1.9 2-.8.4-1.7.7-2.6.7h-.3c.3-.2 6.4-4.3 3.5-12.1v-.1c0 .5.6 10-4.3 12.1-.5-.1-1-.3-1.5-.6-.8-.5-1.4-1.1-1.9-2-.5-.8-.7-1.8-.7-2.7 0-1.5.5-2.8 1.5-3.9s2.2-1.6 3.7-1.6c.7 0 1.3.1 1.9.4.1-.6.3-1.2.5-1.7-.7-.3-1.5-.4-2.4-.4-2.1 0-3.8.8-5.1 2.3-1.2 1.4-1.8 3-1.8 4.9 0 1.9.6 3.5 1.9 4.9 1.3 1.4 3 2.1 5 2.1s3.7-.7 5-2.1c1.3-1.4 1.9-3.1 1.9-4.9 0-1-.2-1.9-.5-2.8-.6.3-1.2.5-1.6.6zM15.5 6.9c1.6 2.8 2.5 5.2 2.7 5.8-.3-4.2-2.7-5.8-2.7-5.8zm8.2.5c-.8 1.8-2.4 2.1-2.4 2.1-1.5.4-2.1 1-2.1 1-1.5 1.6-.3 3.4-.3 3.4 3.3-.8 4.5-3.5 4.5-3.5-.1 1.8-4.1 4-4.1 4 1.3 1.3 2.6 1.1 3.4.6 1.1-.6 1.6-2.1 1.6-2.1 1.2-3.1-.6-5.5-.6-5.5z" id="viadeo_3_" fill="#1a4860"/></svg>