<svg xmlns="http://www.w3.org/2000/svg" xmlns:xlink="http://www.w3.org/1999/xlink" height="360" viewBox="0 0 357 360" width="357"><svg height="50" viewBox="0 0 50 50" width="50" x="10" y="10"><path fill="#4BC4B1" d="M25 0C11.2 0 0 11.2 0 25s11.2 25 25 25 25-11.2 25-25S38.8 0 25 0zm-.4 5c1.8 0 3.2 1.4 3.2 3.2 0 1.8-1.4 3.2-3.2 3.2-1.8 0-3.2-1.4-3.2-3.2 0-1.8 1.4-3.2 3.2-3.2zm14 10.4L29 16.6v9.6l4.7 15.6c.2 1-.3 2-1.3 2.2-1 .2-2-.3-2.2-1.3l-4.8-14.2h-1.5L19.5 43c-.4.9-1.4 1.4-2.4 1-.9-.4-1.5-1.4-1.1-2.4l4-15.3v-9.8l-8.9-1.2c-.9-.1-1.5-.9-1.5-1.8.1-.9.9-1.6 1.8-1.5l10.9 1H27l11.5-.9c.9 0 1.7.7 1.7 1.6 0 .9-.7 1.7-1.6 1.7z"/></svg><svg height="50" viewBox="0 0 50 50" width="50" x="70" y="70"><g id="top" fill="#47BAA8"><path d="M46.2 4.9v42.2H2.9V4.9h43.3m0-1.9H2.9C1.9 3 1 3.9 1 4.9v42.2c0 1 .9 1.9 1.9 1.9h43.3c1 0 1.9-.9 1.9-1.9V4.9c0-1-.8-1.9-1.9-1.9z"/><path d="M17.7 23.8l6.9-6.9 2.2 2.2-7 6.9-2.1-2.2z"/><path d="M17.7 23.8c.6-.6 1.6-.6 2.2 0s.6 1.6 0 2.2-1.6.6-2.2 0-.6-1.6 0-2.2zm13.8 0l-6.9-6.9-2.2 2.2 6.9 6.9 2.2-2.2z"/><path d="M31.5 23.8c-.6-.6-1.6-.6-2.2 0s-.6 1.6 0 2.2 1.6.6 2.2 0c.5-.6.5-1.6 0-2.2zm-5.4 11.3V21.2H23v13.9h3.1z"/></g></svg><svg height="47.4" viewBox="0 0 45 48" width="45" x="130" y="130"><g id="plus"><circle fill="#47BAA8" cx="22.1" cy="24.5" r="20.1"/><path fill="#FFF" d="M31 24h-8v-8h-2v8h-8v2h8v8h2v-8h8z"/></g></svg><svg height="33" viewBox="0 0 33 33" width="33" x="185" y="188"><style>.st0{fill:#1a4860}</style><path class="st0" d="M16.5 7.7c-5 0-9.1 4.1-9.1 9.3 0 4.1 2.6 7.6 6.2 8.8.5.1.6-.2.6-.4v-1.6c-2.5.6-3.1-1.2-3.1-1.2-.4-1.1-1-1.4-1-1.4-.8-.6.1-.6.1-.6.9.1 1.4 1 1.4 1 .8 1.4 2.1 1 2.7.8.1-.6.3-1 .6-1.2-2-.2-4.2-1-4.2-4.6 0-1 .4-1.8.9-2.5-.1-.2-.4-1.2.1-2.5 0 0 .8-.2 2.5 1 .7-.2 1.5-.3 2.3-.3s1.6.1 2.3.3c1.7-1.2 2.5-1 2.5-1 .5 1.3.2 2.2.1 2.5.6.6.9 1.5.9 2.5 0 3.6-2.1 4.3-4.2 4.6.3.3.6.9.6 1.7v2.5c0 .2.2.5.6.4 3.6-1.2 6.2-4.7 6.2-8.8.1-5.1-4-9.3-9-9.3z" id="twitter"/></svg><svg height="33" viewBox="0 0 33 33" width="33" x="228" y="231"><style>.st0{fill:#1a4860}</style><g id="linkedin"><path class="st0" d="M10.5 22.6h2.6v-7.8h-2.6v7.8zM11.8 11c-.9 0-1.5.6-1.5 1.4 0 .8.6 1.4 1.4 1.4.9 0 1.5-.6 1.5-1.4.1-.8-.5-1.4-1.4-1.4zm7.7 3.6c-1.4 0-2 .8-2.3 1.3v-1.1h-2.6v7.8h2.6v-4.4c0-.2 0-.5.1-.6.2-.5.6-1 1.3-1 .9 0 1.3.7 1.3 1.8v4.2h2.6v-4.5c0-2.4-1.3-3.5-3-3.5z" id="linkedin_3_"/></g></svg><svg height="33" viewBox="0 0 33 33" width="33" x="271" y="274"><style>.st0{fill:#1a4860}</style><path class="st0" d="M24.2 11.9c-.6.3-1.2.4-1.8.5.7-.4 1.2-1 1.4-1.8-.6.4-1.3.6-2 .8-.6-.6-1.4-1-2.3-1-1.8 0-3.2 1.4-3.2 3.2 0 .3 0 .5.1.7-2.7-.1-5-1.4-6.6-3.3-.3.5-.4 1-.4 1.6 0 1.1.6 2.1 1.4 2.7-.5 0-1-.2-1.4-.4 0 1.5 1.1 2.8 2.6 3.1-.3.1-.6.1-.8.1-.2 0-.4 0-.6-.1.4 1.3 1.6 2.2 3 2.2-1.1.9-2.5 1.4-4 1.4h-.8c1.4.9 3.1 1.4 4.9 1.4 5.9 0 9.1-4.9 9.1-9.1v-.4c.5-.4 1-.9 1.4-1.6z" id="twitter"/></svg><svg height="33" viewBox="0 0 33 33" width="33" x="314" y="317"><style>.st0{fill:#1a4860}</style><path class="st0" d="M19.9 17.4c.3.7.4 1.4.4 2.2 0 1-.2 1.9-.7 2.7-.5.8-1.1 1.5-1.9 2-.8.4-1.7.7-2.6.7h-.3c.3-.2 6.4-4.3 3.5-12.1v-.1c0 .5.6 10-4.3 12.1-.5-.1-1-.3-1.5-.6-.8-.5-1.4-1.1-1.9-2-.5-.8-.7-1.8-.7-2.7 0-1.5.5-2.8 1.5-3.9s2.2-1.6 3.7-1.6c.7 0 1.3.1 1.9.4.1-.6.3-1.2.5-1.7-.7-.3-1.5-.4-2.4-.4-2.1 0-3.8.8-5.1 2.3-1.2 1.4-1.8 3-1.8 4.9 0 1.9.6 3.5 1.9 4.9 1.3 1.4 3 2.1 5 2.1s3.7-.7 5-2.1c1.3-1.4 1.9-3.1 1.9-4.9 0-1-.2-1.9-.5-2.8-.6.3-1.2.5-1.6.6zM15.5 6.9c1.6 2.8 2.5 5.2 2.7 5.8-.3-4.2-2.7-5.8-2.7-5.8zm8.2.5c-.8 1.8-2.4 2.1-2.4 2.1-1.5.4-2.1 1-2.1 1-1.5 1.6-.3 3.4-.3 3.4 3.3-.8 4.5-3.5 4.5-3.5-.1 1.8-4.1 4-4.1 4 1.3 1.3 2.6 1.1 3.4.6 1.1-.6 1.6-2.1 1.6-2.1 1.2-3.1-.6-5.5-.6-5.5z" id="viadeo_3_"/></svg></svg>