<?xml version="1.0" encoding="UTF-8"?>
<svg id="Layer_1" xmlns="http://www.w3.org/2000/svg" version="1.1" viewBox="0 0 33 33">
  <!-- Generator: Adobe Illustrator 29.3.1, SVG Export Plug-In . SVG Version: 2.1.0 Build 151)  -->
  <path d="M16.7,14.2c-1.1-2.1-4-6.1-6.8-8-2.6-1.9-3.6-1.5-4.3-1.2-.8.3-.9,1.5-.9,2.2s.4,5.7.6,6.5c.8,2.7,3.7,3.7,6.4,3.4.1,0,.3,0,.4,0-.1,0-.3,0-.4,0-3.9.6-7.4,2-2.8,7.1,5,5.2,6.9-1.1,7.8-4.3,1,3.2,2.1,9.3,7.7,4.3,4.3-4.3,1.2-6.5-2.7-7.1-.1,0-.3,0-.4,0,.1,0,.3,0,.4,0,2.7.3,5.6-.6,6.4-3.4.2-.8.6-5.8.6-6.5s-.1-1.9-.9-2.2c-.7-.3-1.7-.6-4.3,1.2-2.8,1.9-5.7,5.9-6.8,8Z"/>
</svg>