<?xml version="1.0" encoding="UTF-8"?>
<svg id="Layer_1" xmlns="http://www.w3.org/2000/svg" version="1.1" viewBox="0 0 33 33">
  <!-- Generator: Adobe Illustrator 29.3.1, SVG Export Plug-In . SVG Version: 2.1.0 Build 151)  -->
  <path d="M16.7,15.7c-1-2-3.7-5.8-6.2-7.7-2.4-1.8-3.3-1.4-3.9-1.1-.7.3-.8,1.4-.8,2.1s.4,5.5.6,6.2c.7,2.6,3.4,3.5,5.9,3.3h.4-.4c-3.6.6-6.8,1.9-2.6,6.8,4.6,5,6.3-1.1,7.2-4.1.9,3.1,1.9,8.9,7.1,4.1,3.9-4.1,1.1-6.2-2.5-6.8h-.4.4c2.5.3,5.1-.6,5.9-3.3.2-.8.6-5.5.6-6.2s0-1.8-.8-2.1c-.6-.3-1.6-.6-3.9,1.1-2.6,1.8-5.2,5.6-6.2,7.7Z"/>
</svg>