<?xml version="1.0" encoding="utf-8"?>
<!-- Generator: Adobe Illustrator 19.2.1, SVG Export Plug-In . SVG Version: 6.00 Build 0)  -->
<svg version="1.1" id="Layer_1" xmlns="http://www.w3.org/2000/svg" xmlns:xlink="http://www.w3.org/1999/xlink" x="0px" y="0px"
	 viewBox="0 0 33 33" style="enable-background:new 0 0 33 33;" xml:space="preserve">
<style type="text/css">
	.st0{fill:#1A4860;}
</style>
<g id="twitter">
	<path class="st0" d="M16.5,7.7c-5,0-9.1,4.1-9.1,9.3c0,4.1,2.6,7.6,6.2,8.8c0.5,0.1,0.6-0.2,0.6-0.4c0-0.2,0-0.8,0-1.6
		c-2.5,0.6-3.1-1.2-3.1-1.2c-0.4-1.1-1-1.4-1-1.4c-0.8-0.6,0.1-0.6,0.1-0.6c0.9,0.1,1.4,1,1.4,1c0.8,1.4,2.1,1,2.7,0.8
		c0.1-0.6,0.3-1,0.6-1.2c-2-0.2-4.2-1-4.2-4.6c0-1,0.4-1.8,0.9-2.5c-0.1-0.2-0.4-1.2,0.1-2.5c0,0,0.8-0.2,2.5,1
		c0.7-0.2,1.5-0.3,2.3-0.3s1.6,0.1,2.3,0.3c1.7-1.2,2.5-1,2.5-1c0.5,1.3,0.2,2.2,0.1,2.5c0.6,0.6,0.9,1.5,0.9,2.5
		c0,3.6-2.1,4.3-4.2,4.6c0.3,0.3,0.6,0.9,0.6,1.7c0,1.2,0,2.2,0,2.5c0,0.2,0.2,0.5,0.6,0.4c3.6-1.2,6.2-4.7,6.2-8.8
		C25.6,11.9,21.5,7.7,16.5,7.7z"/>
</g>
</svg>
