<?xml version="1.0" encoding="utf-8"?>
<!-- Generator: Adobe Illustrator 19.2.1, SVG Export Plug-In . SVG Version: 6.00 Build 0)  -->
<svg version="1.1" id="Layer_1" xmlns="http://www.w3.org/2000/svg" xmlns:xlink="http://www.w3.org/1999/xlink" x="0px" y="0px"
	 viewBox="0 0 33 33" style="enable-background:new 0 0 33 33;" xml:space="preserve">
<style type="text/css">
	.st0{fill:#1A4860;}
</style>
<g id="linkedin">
	<g id="linkedin_3_">
		<g>
			<path class="st0" d="M10.5,22.6h2.6v-7.8h-2.6V22.6z M11.8,11c-0.9,0-1.5,0.6-1.5,1.4c0,0.8,0.6,1.4,1.4,1.4h0
				c0.9,0,1.5-0.6,1.5-1.4C13.3,11.6,12.7,11,11.8,11z M19.5,14.6c-1.4,0-2,0.8-2.3,1.3v0h0c0,0,0,0,0,0v-1.1h-2.6
				c0,0.7,0,7.8,0,7.8h2.6v-4.4c0-0.2,0-0.5,0.1-0.6c0.2-0.5,0.6-1,1.3-1c0.9,0,1.3,0.7,1.3,1.8v4.2h2.6v-4.5
				C22.5,15.7,21.2,14.6,19.5,14.6z"/>
		</g>
	</g>
</g>
</svg>
