<svg version="1.1" xmlns="http://www.w3.org/2000/svg" x="0" y="0" viewBox="0 0 34 34" xml:space="preserve"><path d="M26.2 13.8c0-4.5-3-5.8-3-5.8-1.5-.6-4.1-1-6.8-1s-5.4.3-6.8 1c0-.1-3 1.3-3 5.8v3.6c.1 4.5.8 8.8 5 9.9 1.9.5 3.5.6 4.8.6 2.4-.2 3.8-.8 3.8-.8l-.1-1.7s-1.7.6-3.6.5-3.9-.2-4.3-2.5c0-.2-.1-.4-.1-.6 0 0 1.9.5 4.3.6 1.5.1 2.8-.1 4.2-.2 2.6-.3 4.9-1.9 5.3-3.4.4-2.7.3-6 .3-6zm-3.5 5.9h-2.2v-5.4c0-1.1-.5-1.7-1.4-1.7-1.1 0-1.6.6-1.6 2v2.9h-2.2v-2.9c0-1.3-.5-2-1.6-2-1 0-1.4.6-1.4 1.7v5.4H10v-5.5c0-1.1.3-2 .9-2.7.6-.6 1.4-1 2.4-1 1.1 0 2 .4 2.5 1.3l.6.9.6-.9c.6-.9 1.4-1.3 2.5-1.3 1 0 1.7.3 2.4 1 .6.6.9 1.5.9 2.7v5.5h-.1z" fill="#1a4860"/></svg>