<?xml version="1.0" encoding="utf-8"?>
<!-- Generator: Adobe Illustrator 21.0.0, SVG Export Plug-In . SVG Version: 6.00 Build 0)  -->
<svg version="1.1" xmlns="http://www.w3.org/2000/svg" xmlns:xlink="http://www.w3.org/1999/xlink" x="0px" y="0px"
	 viewBox="0 0 50 50" style="enable-background:new 0 0 50 50;" xml:space="preserve">
	<path fill="#47BAA8" d="M46.2,4.9v42.2H2.9V4.9H46.2 M46.2,3H2.9C1.9,3,1,3.9,1,4.9v42.2c0,1,0.9,1.9,1.9,1.9h43.3
		c1,0,1.9-0.9,1.9-1.9V4.9C48.1,3.9,47.3,3,46.2,3L46.2,3z"/>
		<path fill="#47BAA8" d="M17.7,23.8l6.9-6.9l2.2,2.2l-7,6.9L17.7,23.8z"/>
		<path fill="#47BAA8" d="M17.7,23.8c0.6-0.6,1.6-0.6,2.2,0s0.6,1.6,0,2.2s-1.6,0.6-2.2,0S17.1,24.4,17.7,23.8z"/>
		<path fill="#47BAA8" d="M31.5,23.8l-6.9-6.9l-2.2,2.2l6.9,6.9L31.5,23.8z"/>
		<path fill="#47BAA8" d="M31.5,23.8c-0.6-0.6-1.6-0.6-2.2,0s-0.6,1.6,0,2.2s1.6,0.6,2.2,0C32,25.4,32,24.4,31.5,23.8z"/>
		<path fill="#47BAA8" d="M26.1,35.1V21.2H23v13.9H26.1z"/>
</svg>
