<?xml version="1.0" encoding="utf-8"?>
<!-- Generator: Adobe Illustrator 19.2.1, SVG Export Plug-In . SVG Version: 6.00 Build 0)  -->
<svg version="1.1" id="Layer_1" xmlns="http://www.w3.org/2000/svg" xmlns:xlink="http://www.w3.org/1999/xlink" x="0px" y="0px"
	 viewBox="0 0 33 33" style="enable-background:new 0 0 33 33;" xml:space="preserve">
<style type="text/css">
	.st0{fill:#1A4860;}
</style>
<g>
	<g id="viadeo_3_">
		<g>
			<path class="st0" d="M19.9,17.4c0.3,0.7,0.4,1.4,0.4,2.2c0,1-0.2,1.9-0.7,2.7c-0.5,0.8-1.1,1.5-1.9,2C16.9,24.7,16,25,15.1,25
				c-0.1,0-0.2,0-0.3,0c0.3-0.2,6.4-4.3,3.5-12.1c0,0,0,0,0-0.1c0,0.5,0.6,10-4.3,12.1c-0.5-0.1-1-0.3-1.5-0.6
				c-0.8-0.5-1.4-1.1-1.9-2c-0.5-0.8-0.7-1.8-0.7-2.7c0-1.5,0.5-2.8,1.5-3.9c1-1.1,2.2-1.6,3.7-1.6c0.7,0,1.3,0.1,1.9,0.4
				c0.1-0.6,0.3-1.2,0.5-1.7c-0.7-0.3-1.5-0.4-2.4-0.4c-2.1,0-3.8,0.8-5.1,2.3c-1.2,1.4-1.8,3-1.8,4.9c0,1.9,0.6,3.5,1.9,4.9
				c1.3,1.4,3,2.1,5,2.1c2,0,3.7-0.7,5-2.1c1.3-1.4,1.9-3.1,1.9-4.9c0-1-0.2-1.9-0.5-2.8C20.9,17.1,20.3,17.3,19.9,17.4z M15.5,6.9
				c1.6,2.8,2.5,5.2,2.7,5.8c0,0,0,0,0,0C17.9,8.5,15.5,6.9,15.5,6.9z M23.7,7.4c-0.8,1.8-2.4,2.1-2.4,2.1c-1.5,0.4-2.1,1-2.1,1
				c-1.5,1.6-0.3,3.4-0.3,3.4c3.3-0.8,4.5-3.5,4.5-3.5c-0.1,1.8-4.1,4-4.1,4c1.3,1.3,2.6,1.1,3.4,0.6c1.1-0.6,1.6-2.1,1.6-2.1
				C25.5,9.8,23.7,7.4,23.7,7.4z"/>
		</g>
	</g>
</g>
</svg>
